<?xml version="1.0" encoding="UTF-8"?>
<svg width="61px" height="60px" viewBox="0 0 61 60" version="1.1" xmlns="http://www.w3.org/2000/svg" xmlns:xlink="http://www.w3.org/1999/xlink">
    <!-- Generator: Sketch 52.4 (67378) - http://www.bohemiancoding.com/sketch -->
    <title>Youtube–dark</title>
    <desc>Created with Sketch.</desc>
    <g id="Page-1" stroke="none" stroke-width="1" fill="none" fill-rule="evenodd">
        <g id="soc_circle" transform="translate(-180.000000, -900.000000)">
            <g id="dark_theme" transform="translate(0.000000, 620.000000)">
                <g id="Dark" transform="translate(80.000000, 79.000000)">
                    <g id="Youtube–dark" transform="translate(100.000000, 201.000000)">
                        <path d="M0,30 C0,13.4314567 13.4508663,0 30.0433526,0 C46.6358389,0 60.0867052,13.4314567 60.0867052,30 C60.0867052,46.5685433 46.6358389,60 30.0433526,60 C13.4508663,60 0,46.5685433 0,30 Z" id="back" fill="#333333"></path>
                        <path d="M45.68,23.9613454 C45.68,23.9613454 46,26.6080775 46,29.2537877 L46,31.7349713 C46,34.3817035 45.68,37.0274137 45.68,37.0274137 C45.68,37.0274137 45.367,39.2807127 44.408,40.2729817 C43.191,41.5759097 41.827,41.5820411 41.202,41.658684 C36.724,41.989781 30,42 30,42 C30,42 21.68,41.9223353 19.12,41.6709468 C18.408,41.5350335 16.809,41.5759097 15.591,40.2729817 C14.632,39.2807127 14.32,37.0274137 14.32,37.0274137 C14.32,37.0274137 14,34.3817035 14,31.7349713 L14,29.2537877 C14,26.6080775 14.32,23.9613454 14.32,23.9613454 C14.32,23.9613454 14.632,21.7080464 15.591,20.7157773 C16.809,19.4128493 18.172,19.4067179 18.798,19.331097 C23.276,19 29.993,19 29.993,19 L30.007,19 C30.007,19 36.724,19 41.202,19.331097 C41.827,19.4067179 43.191,19.4128493 44.408,20.7157773 C45.367,21.7080464 45.68,23.9613454 45.68,23.9613454 Z M26.696,34.7414138 L35.341,30.1632825 L26.695,25.5534723 L26.696,34.7414138 Z" id="Combined-Shape" fill="#FFFFFF"></path>
                    </g>
                </g>
            </g>
        </g>
    </g>
</svg>
